Billy Joel Live at Shea Stadium Mkv 1080p Ac3 640 Kbps


TRACKLISTING:
1. Prelude/Angry Young Man
2. My Life
3. Summer, Highland Falls
4. Everybody Loves You Now
5. Zanzibar
6. New York State Of Mind (with Tony Bennett)
7. Allentown
8. The Ballad Of Billy The Kid
9. She's Always A Woman
10. Goodnight Saigon
11. Miami 2017 (Seen The Lights Go Out On Broadway)
12. Shameless (with Garth Brooks)
13. This Is The Time (with John Mayer)
14. Keeping The Faith
15. Captain Jack
16. Lullabye (Goodnight, My Angel)
17. The River Of Dreams/A Hard Day's Night
18. We Didn't Start The Fire
19. You May Be Right
20. Scenes From An Italian Restaurant
21. Only The Good Die Young
22. I Saw Her Standing There (with Paul McCartney)
23. Take Me Out To The Ballgame
24. Piano Man
25. Let It Be (with Paul McCartney)

General 
Unique ID : 175714406106697027064440968026269746009 (0x84315D1763211D14A65DA6669FFD0359) 
Complete name : C:UsersMarcVideosNew folderBilly Joel Live at Shea Stadium Mkv 1080p Ac3 640 Kbps.mkv 
Format : Matroska 
Format version : Version 2 
File size : 6.72 GiB 
Duration : 2h 20mn 
Overall bit rate mode : Variable 
Overall bit rate : 6 836 Kbps 
Movie name : Billy Joel Live at Shea Stadium 
Encoded date : UTC 2012-10-28 02:07:15 
Writing application : mkvmerge v5.7.0 ('The Whirlwind') built on Jul 8 2012 20:08:51 
Writing library : libebml v1.2.3 + libmatroska v1.3.0 

Video 
ID : 1 
Format : AVC 
Format/Info : Advanced Video Codec 
Format profile : High@L4.0 
Format settings, CABAC : Yes 
Format settings, ReFrames : 3 frames 
Codec ID : V_MPEG4/ISO/AVC 
Duration : 2h 20mn 
Bit rate mode : Variable 
Bit rate : 6 060 Kbps 
Maximum bit rate : 25.0 Mbps 
Width : 1 920 pixels 
Height : 1 080 pixels 
Display aspect ratio : 16:9 
Frame rate mode : Constant 
Frame rate : 29.970 fps 
Color space : YUV 
Chroma subsampling : 4:2:0 
Bit depth : 8 bits 
Scan type : Progressive 
Bits/(Pixel*Frame) : 0.098 
Stream size : 5.96 GiB (89%) 
Writing library : x264 core 125 r2208 d9d2288 
Encoding settings : cabac=1 / ref=3 / deblock=1:0:0 / analyse=0x3:0x113 / me=hex / subme=7 / psy=1 / psy_rd=1.00:0.00 / mixed_ref=1 / me_range=16 / chroma_me=1 / trellis=1 / 8x8dct=1 / cqm=0 / deadzone=21,11 / fast_pskip=1 / chroma_qp_offset=-2 / threads=12 / lookahead_threads=2 / sliced_threads=0 / nr=0 / decimate=1 / interlaced=0 / bluray_compat=0 / constrained_intra=0 / bframes=3 / b_pyramid=0 / b_adapt=1 / b_bias=0 / direct=1 / weightb=1 / open_gop=0 / weightp=2 / keyint=300 / keyint_min=30 / scenecut=40 / intra_refresh=0 / rc_lookahead=40 / rc=crf / mbtree=1 / crf=24.0 / qcomp=0.60 / qpmin=0 / qpmax=69 / qpstep=4 / vbv_maxrate=25000 / vbv_bufsize=25000 / crf_max=0.0 / nal_hrd=vbr / ip_ratio=1.40 / aq=1:1.00 
Default : Yes 
Forced : No 

Audio 
ID : 2 
Format : AC-3 
Format/Info : Audio Coding 3 
Mode extension : CM (complete main) 
Format settings, Endianness : Big 
Codec ID : A_AC3 
Duration : 2h 20mn 
Bit rate mode : Constant 
Bit rate : 640 Kbps 
Channel(s) : 6 channels 
Channel positions : Front: L C R, Side: L R, LFE 
Sampling rate : 48.0 KHz 
Bit depth : 16 bits 
Compression mode : Lossy 
Stream size : 644 MiB (9%) 
Language : English 
Default : Yes 
Forced : No 

Menu 
00:00:00.000 : en:Chapter 00 
00:05:32.098 : en:Chapter 01 
00:12:01.287 : en:Chapter 02 
00:15:47.446 : en:Chapter 03 
00:19:05.911 : en:Chapter 04 
00:25:23.855 : en:Chapter 05 
00:32:37.588 : en:Chapter 06 
00:36:39.830 : en:Chapter 07 
00:42:53.370 : en:Chapter 08 
00:46:49.006 : en:Chapter 09 
00:54:55.325 : en:Chapter 10 
01:00:16.512 : en:Chapter 11 
01:05:29.992 : en:Chapter 12 
01:12:02.851 : en:Chapter 13 
01:17:03.185 : en:Chapter 14 
01:24:19.387 : en:Chapter 15 
01:28:01.209 : en:Chapter 16 
01:35:21.916 : en:Chapter 17 
01:40:50.611 : en:Chapter 18 
01:46:54.207 : en:Chapter 19 
01:55:54.580 : en:Chapter 20 
02:01:13.833 : en:Chapter 21 
02:05:13.506 : en:Chapter 22 
02:06:05.758 : en:Chapter 23 
02:12:54.666 : en:Chapter 24 
02:17:51.062 : en:Chapter 25 
